# xmcd
#
# Track frame offsets: 
#        150
#        12345
#        29302
#        53558
#        65422
#        82050
#        101683
#        135733
#        152510
#        172796
#        184806
#
# Disc length: 3458 seconds
#
# Revision: 0
# Processed by: cddbd v1.5.1PL2 Copyright (c) Steve Scherf et al.
# Submitted via: ExactAudioCopy v0.95b3
#
DISCID=840d800b
DTITLE=Annieville - Welcome To Annieville
DYEAR=1900
DGENRE=Blues
TTITLE0=Morning Coffee
TTITLE1=Mr Pretend
TTITLE2=Lullaby
TTITLE3=Playing My Boogie
TTITLE4=Fether Head Possie
TTITLE5=Going To The River
TTITLE6=Lay It Back
TTITLE7=Peetie Wheetie
TTITLE8=Oooh Wee
TTITLE9=Super Vixen
TTITLE10=Welcom to Annieville
EXTD=
EXTT0=
EXTT1=
EXTT2=
EXTT3=
EXTT4=
EXTT5=
EXTT6=
EXTT7=
EXTT8=
EXTT9=
EXTT10=
PLAYORDER=
